<svg width="46" height="46" viewBox="0 0 46 46" fill="none" xmlns="http://www.w3.org/2000/svg">
<rect width="46" height="46" rx="12" fill="#56A0D9" fill-opacity="0.1"/>
<path d="M33.9738 21.7711C33.9359 21.6108 33.8591 21.4624 33.75 21.339C33.641 21.2156 33.5032 21.121 33.3488 21.0636L26.1475 18.3624L27.98 9.19612C28.0215 8.98315 27.9926 8.76246 27.8977 8.56735C27.8028 8.37224 27.6469 8.21331 27.4538 8.11453C27.2606 8.01574 27.0405 7.98248 26.8267 8.01974C26.613 8.05701 26.4172 8.16279 26.2688 8.32112L12.2688 23.3211C12.1551 23.4409 12.0728 23.5871 12.0294 23.7464C11.9859 23.9058 11.9826 24.0734 12.0197 24.2344C12.0569 24.3953 12.1333 24.5446 12.2422 24.6688C12.3511 24.793 12.4891 24.8883 12.6438 24.9461L19.8475 27.6474L18.02 36.8036C17.9785 37.0166 18.0074 37.2373 18.1024 37.4324C18.1973 37.6275 18.3531 37.7864 18.5463 37.8852C18.7395 37.984 18.9596 38.0173 19.1733 37.98C19.3871 37.9427 19.5829 37.837 19.7313 37.6786L33.7313 22.6786C33.8429 22.5588 33.9234 22.4134 33.9657 22.2551C34.008 22.0969 34.0108 21.9307 33.9738 21.7711ZM20.6713 33.7499L21.98 27.2024C22.0269 26.9702 21.9898 26.7289 21.8753 26.5215C21.7608 26.3141 21.5765 26.154 21.355 26.0699L14.75 23.5886L25.3275 12.2561L24.02 18.8036C23.9732 19.0358 24.0103 19.2771 24.1248 19.4845C24.2392 19.6919 24.4236 19.852 24.645 19.9361L31.245 22.4111L20.6713 33.7499Z" fill="#4BAEEB"/>
</svg>
