<svg width="46" height="46" viewBox="0 0 46 46" fill="none" xmlns="http://www.w3.org/2000/svg">
<rect width="46" height="46" rx="12" fill="#56A0D9" fill-opacity="0.1"/>
<path d="M36 33C36 33.2652 35.8946 33.5196 35.7071 33.7071C35.5196 33.8946 35.2652 34 35 34H11C10.7348 34 10.4804 33.8946 10.2929 33.7071C10.1054 33.5196 10 33.2652 10 33V13C10 12.7348 10.1054 12.4804 10.2929 12.2929C10.4804 12.1054 10.7348 12 11 12C11.2652 12 11.5196 12.1054 11.7071 12.2929C11.8946 12.4804 12 12.7348 12 13V26.5863L18.2925 20.2925C18.3854 20.1995 18.4957 20.1258 18.6171 20.0754C18.7385 20.0251 18.8686 19.9992 19 19.9992C19.1314 19.9992 19.2615 20.0251 19.3829 20.0754C19.5043 20.1258 19.6146 20.1995 19.7075 20.2925L23 23.5863L29.5863 17H27C26.7348 17 26.4804 16.8946 26.2929 16.7071C26.1054 16.5196 26 16.2652 26 16C26 15.7348 26.1054 15.4804 26.2929 15.2929C26.4804 15.1054 26.7348 15 27 15H32C32.2652 15 32.5196 15.1054 32.7071 15.2929C32.8946 15.4804 33 15.7348 33 16V21C33 21.2652 32.8946 21.5196 32.7071 21.7071C32.5196 21.8946 32.2652 22 32 22C31.7348 22 31.4804 21.8946 31.2929 21.7071C31.1054 21.5196 31 21.2652 31 21V18.4137L23.7075 25.7075C23.6146 25.8005 23.5043 25.8742 23.3829 25.9246C23.2615 25.9749 23.1314 26.0008 23 26.0008C22.8686 26.0008 22.7385 25.9749 22.6171 25.9246C22.4957 25.8742 22.3854 25.8005 22.2925 25.7075L19 22.4137L12 29.4137V32H35C35.2652 32 35.5196 32.1054 35.7071 32.2929C35.8946 32.4804 36 32.7348 36 33Z" fill="#4BAEEB"/>
</svg>
