<svg width="46" height="46" viewBox="0 0 46 46" fill="none" xmlns="http://www.w3.org/2000/svg">
<rect width="46" height="46" rx="12" fill="#56A0D9" fill-opacity="0.1"/>
<path d="M37.5999 25.7999C37.4948 25.8787 37.3753 25.936 37.2481 25.9686C37.1209 26.0012 36.9885 26.0084 36.8585 25.9898C36.7285 25.9713 36.6034 25.9273 36.4904 25.8604C36.3774 25.7935 36.2787 25.705 36.1999 25.5999C35.5972 24.7897 34.8126 24.1324 33.9094 23.6808C33.0063 23.2292 32.0097 22.996 30.9999 22.9999C30.8032 22.9999 30.611 22.9419 30.4471 22.8332C30.2833 22.7244 30.1551 22.5698 30.0786 22.3886C30.0267 22.2656 30 22.1334 30 21.9999C30 21.8664 30.0267 21.7342 30.0786 21.6111C30.1551 21.43 30.2833 21.2754 30.4471 21.1666C30.611 21.0579 30.8032 20.9999 30.9999 20.9999C31.561 20.9998 32.1108 20.8424 32.5869 20.5456C33.063 20.2487 33.4464 19.8243 33.6934 19.3204C33.9403 18.8166 34.0411 18.2537 33.9841 17.6955C33.9272 17.1373 33.7149 16.6062 33.3713 16.1627C33.0276 15.7191 32.5665 15.3808 32.0403 15.1862C31.514 14.9915 30.9437 14.9484 30.3942 15.0616C29.8446 15.1749 29.3379 15.4399 28.9314 15.8268C28.525 16.2136 28.2352 16.7066 28.0949 17.2499C28.0621 17.3771 28.0045 17.4966 27.9255 17.6016C27.8465 17.7066 27.7475 17.7949 27.6344 17.8617C27.5212 17.9284 27.396 17.9722 27.2659 17.9906C27.1358 18.0089 27.0034 18.0015 26.8761 17.9686C26.7489 17.9358 26.6294 17.8783 26.5244 17.7992C26.4195 17.7202 26.3311 17.6213 26.2644 17.5081C26.1976 17.395 26.1538 17.2697 26.1355 17.1397C26.1171 17.0096 26.1246 16.8771 26.1574 16.7499C26.3521 15.9965 26.7199 15.299 27.2316 14.7128C27.7433 14.1267 28.3848 13.668 29.1049 13.3733C29.8251 13.0787 30.6041 12.9562 31.3799 13.0156C32.1558 13.0749 32.9071 13.3146 33.574 13.7154C34.2409 14.1162 34.8051 14.6672 35.2216 15.3244C35.6381 15.9817 35.8955 16.727 35.9733 17.5012C36.0511 18.2755 35.9471 19.0571 35.6696 19.7841C35.3921 20.511 34.9488 21.1632 34.3749 21.6886C35.7347 22.2774 36.9167 23.2117 37.8036 24.3986C37.8824 24.504 37.9397 24.6238 37.9721 24.7513C38.0045 24.8788 38.0114 25.0114 37.9925 25.1415C37.9736 25.2717 37.9291 25.3969 37.8618 25.5098C37.7944 25.6228 37.7054 25.7214 37.5999 25.7999ZM30.8649 33.4999C30.9372 33.6137 30.9858 33.741 31.0077 33.8741C31.0296 34.0072 31.0243 34.1433 30.9923 34.2743C30.9602 34.4053 30.9019 34.5284 30.821 34.6363C30.7401 34.7442 30.6382 34.8346 30.5214 34.9021C30.4047 34.9696 30.2754 35.0128 30.1416 35.0291C30.0077 35.0453 29.8719 35.0343 29.7424 34.9968C29.6128 34.9592 29.4922 34.8958 29.3878 34.8104C29.2834 34.725 29.1974 34.6194 29.1349 34.4999C28.5049 33.4332 27.6078 32.5492 26.5319 31.9352C25.4561 31.3211 24.2387 30.9981 22.9999 30.9981C21.7611 30.9981 20.5437 31.3211 19.4679 31.9352C18.392 32.5492 17.4948 33.4332 16.8649 34.4999C16.8024 34.6194 16.7163 34.725 16.6119 34.8104C16.5075 34.8958 16.387 34.9592 16.2574 34.9968C16.1279 35.0343 15.9921 35.0453 15.8582 35.0291C15.7243 35.0128 15.5951 34.9696 15.4784 34.9021C15.3616 34.8346 15.2597 34.7442 15.1788 34.6363C15.0979 34.5284 15.0396 34.4053 15.0075 34.2743C14.9754 34.1433 14.9702 34.0072 14.9921 33.8741C15.014 33.741 15.0625 33.6137 15.1349 33.4999C16.1044 31.8341 17.5826 30.5232 19.3524 29.7599C18.3566 28.9974 17.6247 27.9421 17.2596 26.7422C16.8946 25.5423 16.9148 24.2581 17.3173 23.0703C17.7198 21.8824 18.4844 20.8506 19.5037 20.1197C20.523 19.3889 21.7457 18.9959 22.9999 18.9959C24.2541 18.9959 25.4768 19.3889 26.4961 20.1197C27.5153 20.8506 28.28 21.8824 28.6825 23.0703C29.085 24.2581 29.1052 25.5423 28.7401 26.7422C28.3751 27.9421 27.6432 28.9974 26.6474 29.7599C28.4171 30.5232 29.8954 31.8341 30.8649 33.4999ZM22.9999 28.9999C23.791 28.9999 24.5644 28.7653 25.2222 28.3258C25.88 27.8863 26.3927 27.2615 26.6954 26.5306C26.9982 25.7997 27.0774 24.9955 26.923 24.2195C26.7687 23.4436 26.3877 22.7309 25.8283 22.1715C25.2689 21.6121 24.5562 21.2311 23.7803 21.0768C23.0043 20.9224 22.2001 21.0016 21.4692 21.3044C20.7383 21.6071 20.1135 22.1198 19.674 22.7776C19.2345 23.4354 18.9999 24.2088 18.9999 24.9999C18.9999 26.0608 19.4213 27.0782 20.1715 27.8283C20.9216 28.5785 21.939 28.9999 22.9999 28.9999ZM15.9999 21.9999C15.9999 21.7347 15.8945 21.4803 15.707 21.2928C15.5195 21.1053 15.2651 20.9999 14.9999 20.9999C14.4388 20.9998 13.889 20.8424 13.4129 20.5456C12.9367 20.2487 12.5534 19.8243 12.3064 19.3204C12.0594 18.8166 11.9587 18.2537 12.0156 17.6955C12.0726 17.1373 12.2849 16.6062 12.6285 16.1627C12.9721 15.7191 13.4333 15.3808 13.9595 15.1862C14.4858 14.9915 15.0561 14.9484 15.6056 15.0616C16.1551 15.1749 16.6619 15.4399 17.0684 15.8268C17.4748 16.2136 17.7646 16.7066 17.9049 17.2499C17.9712 17.5068 18.1368 17.7269 18.3654 17.8617C18.594 17.9965 18.8667 18.035 19.1236 17.9686C19.3806 17.9023 19.6006 17.7367 19.7354 17.5081C19.8702 17.2796 19.9087 17.0068 19.8424 16.7499C19.6477 15.9965 19.2799 15.299 18.7682 14.7128C18.2564 14.1267 17.615 13.668 16.8948 13.3733C16.1747 13.0787 15.3957 12.9562 14.6198 13.0156C13.844 13.0749 13.0927 13.3146 12.4258 13.7154C11.7589 14.1162 11.1947 14.6672 10.7782 15.3244C10.3616 15.9817 10.1042 16.727 10.0265 17.5012C9.94871 18.2755 10.0527 19.0571 10.3302 19.7841C10.6077 20.511 11.051 21.1632 11.6249 21.6886C10.2665 22.278 9.08578 23.2122 8.19989 24.3986C8.0406 24.6108 7.97211 24.8776 8.0095 25.1403C8.04689 25.4029 8.18709 25.64 8.39927 25.7993C8.61144 25.9586 8.8782 26.0271 9.14087 25.9897C9.40354 25.9523 9.6406 25.8121 9.79989 25.5999C10.4026 24.7897 11.1872 24.1324 12.0903 23.6808C12.9935 23.2292 13.9901 22.996 14.9999 22.9999C15.2651 22.9999 15.5195 22.8945 15.707 22.707C15.8945 22.5195 15.9999 22.2651 15.9999 21.9999Z" fill="#4BAEEB"/>
</svg>
