<svg width="46" height="46" viewBox="0 0 46 46" fill="none" xmlns="http://www.w3.org/2000/svg">
<rect width="46" height="46" rx="12" fill="#56A0D9" fill-opacity="0.1"/>
<path d="M25.0001 26.7101C26.5677 25.7337 27.7747 24.2734 28.4385 22.55C29.1022 20.8265 29.1866 18.9338 28.6788 17.1582C28.1711 15.3825 27.0988 13.8206 25.6243 12.7086C24.1498 11.5966 22.3532 10.9951 20.5064 10.9951C18.6596 10.9951 16.863 11.5966 15.3885 12.7086C13.9139 13.8206 12.8417 15.3825 12.3339 17.1582C11.8262 18.9338 11.9106 20.8265 12.5743 22.55C13.238 24.2734 14.445 25.7337 16.0126 26.7101C13.4314 27.5551 11.1089 29.1339 9.24137 31.3564C9.15387 31.4564 9.0872 31.5729 9.04525 31.6991C9.0033 31.8252 8.98691 31.9584 8.99705 32.0909C9.00719 32.2235 9.04365 32.3527 9.1043 32.4709C9.16495 32.5892 9.24857 32.6942 9.35027 32.7798C9.45198 32.8654 9.56972 32.9298 9.69662 32.9694C9.82352 33.0089 9.95704 33.0228 10.0894 33.0101C10.2217 32.9975 10.3501 32.9585 10.4672 32.8957C10.5843 32.8328 10.6877 32.7472 10.7714 32.6439C13.2814 29.6489 16.7389 28.0001 20.5001 28.0001C24.2614 28.0001 27.7189 29.6489 30.2339 32.6439C30.4046 32.8471 30.6491 32.9742 30.9135 32.9971C31.1779 33.0201 31.4406 32.9371 31.6439 32.7664C31.8471 32.5956 31.9742 32.3512 31.9971 32.0867C32.0201 31.8223 31.9371 31.5596 31.7664 31.3564C29.8976 29.1339 27.5751 27.5551 25.0001 26.7101ZM14.0001 19.5001C14.0001 18.2145 14.3813 16.9578 15.0956 15.8889C15.8098 14.82 16.825 13.9869 18.0127 13.4949C19.2004 13.0029 20.5073 12.8742 21.7682 13.125C23.0291 13.3758 24.1873 13.9949 25.0963 14.9039C26.0054 15.813 26.6244 16.9712 26.8752 18.232C27.126 19.4929 26.9973 20.7998 26.5053 21.9876C26.0134 23.1753 25.1802 24.1904 24.1113 24.9047C23.0424 25.6189 21.7857 26.0001 20.5001 26.0001C18.7768 25.9981 17.1247 25.3127 15.9061 24.0941C14.6876 22.8756 14.0021 21.2234 14.0001 19.5001Z" fill="#4BAEEB"/>
<path d="M33.0245 19.4635C33.1741 19.0029 33.8259 19.0029 33.9755 19.4635L34.6226 21.4549C34.6895 21.6609 34.8815 21.8004 35.0981 21.8004H37.192C37.6763 21.8004 37.8777 22.4202 37.4859 22.7049L35.7919 23.9357C35.6166 24.063 35.5433 24.2887 35.6102 24.4947L36.2573 26.4861C36.407 26.9467 35.8797 27.3298 35.4879 27.0451L33.7939 25.8143C33.6186 25.687 33.3814 25.687 33.2061 25.8143L31.5121 27.0451C31.1203 27.3298 30.593 26.9467 30.7427 26.4861L31.3898 24.4947C31.4567 24.2887 31.3834 24.063 31.2081 23.9357L29.5141 22.7049C29.1223 22.4202 29.3237 21.8004 29.808 21.8004H31.9019C32.1185 21.8004 32.3105 21.6609 32.3774 21.4549L33.0245 19.4635Z" fill="#4BAEEB"/>
</svg>
