<svg width="46" height="46" viewBox="0 0 46 46" fill="none" xmlns="http://www.w3.org/2000/svg">
<rect width="46" height="46" rx="12" fill="#56A0D9" fill-opacity="0.1"/>
<path d="M36.6098 10.2738C36.4549 10.14 36.2664 10.051 36.0646 10.0164C35.8629 9.98183 35.6555 10.003 35.4648 10.0775L10.1323 19.9913C9.77331 20.1309 9.46936 20.3833 9.26623 20.7106C9.06311 21.0379 8.97181 21.4224 9.00607 21.806C9.04034 22.1897 9.19831 22.5519 9.45622 22.838C9.71413 23.1241 10.058 23.3187 10.4361 23.3925L16.9998 24.6813V32C16.9985 32.3987 17.117 32.7885 17.3399 33.119C17.5628 33.4496 17.8798 33.7055 18.2498 33.8538C18.6193 34.0046 19.0257 34.0409 19.416 33.9577C19.8064 33.8746 20.1627 33.6759 20.4386 33.3875L23.6036 30.105L28.6248 34.5C28.9871 34.8213 29.4543 34.9992 29.9386 35C30.1508 34.9998 30.3617 34.9665 30.5636 34.9013C30.8935 34.7966 31.1903 34.6073 31.4243 34.3522C31.6583 34.0971 31.8214 33.7852 31.8973 33.4475L36.9711 11.375C37.0165 11.176 37.0068 10.9683 36.9432 10.7743C36.8795 10.5803 36.7643 10.4073 36.6098 10.2738ZM28.9673 14.7738L17.7686 22.7938L11.5686 21.5775L28.9673 14.7738ZM18.9998 32V26.065L22.0986 28.7825L18.9998 32ZM29.9411 33L19.6061 23.9375L34.4811 13.2763L29.9411 33Z" fill="#4BAEEB"/>
</svg>
