<svg width="46" height="46" viewBox="0 0 46 46" fill="none" xmlns="http://www.w3.org/2000/svg">
<rect width="46" height="46" rx="12" fill="#56A0D9" fill-opacity="0.1"/>
<path d="M34 12H12C11.4696 12 10.9609 12.2107 10.5858 12.5858C10.2107 12.9609 10 13.4696 10 14V32C10 32.5304 10.2107 33.0391 10.5858 33.4142C10.9609 33.7893 11.4696 34 12 34H34C34.5304 34 35.0391 33.7893 35.4142 33.4142C35.7893 33.0391 36 32.5304 36 32V14C36 13.4696 35.7893 12.9609 35.4142 12.5858C35.0391 12.2107 34.5304 12 34 12ZM19 22C19 21.2089 19.2346 20.4355 19.6741 19.7777C20.1136 19.1199 20.7384 18.6072 21.4693 18.3045C22.2002 18.0017 23.0044 17.9225 23.7804 18.0769C24.5563 18.2312 25.269 18.6122 25.8284 19.1716C26.3878 19.731 26.7688 20.4437 26.9231 21.2196C27.0775 21.9956 26.9983 22.7998 26.6955 23.5307C26.3928 24.2616 25.8801 24.8864 25.2223 25.3259C24.5645 25.7654 23.7911 26 23 26C21.9391 26 20.9217 25.5786 20.1716 24.8284C19.4214 24.0783 19 23.0609 19 22ZM16.0712 32C16.7733 30.7836 17.7833 29.7734 18.9995 29.0711C20.2158 28.3688 21.5955 27.9991 23 27.9991C24.4045 27.9991 25.7842 28.3688 27.0005 29.0711C28.2167 29.7734 29.2267 30.7836 29.9287 32H16.0712ZM34 32H32.1663C31.1107 29.5894 29.1489 27.6909 26.705 26.715C27.6866 25.9444 28.4035 24.8868 28.7559 23.6896C29.1082 22.4924 29.0785 21.2151 28.6708 20.0355C28.2631 18.856 27.4978 17.833 26.4814 17.1088C25.4649 16.3847 24.248 15.9956 23 15.9956C21.752 15.9956 20.5351 16.3847 19.5186 17.1088C18.5022 17.833 17.7369 18.856 17.3292 20.0355C16.9215 21.2151 16.8918 22.4924 17.2441 23.6896C17.5965 24.8868 18.3134 25.9444 19.295 26.715C16.8511 27.6909 14.8893 29.5894 13.8337 32H12V14H34V32Z" fill="#4BAEEB"/>
</svg>
