<svg width="46" height="46" viewBox="0 0 46 46" fill="none" xmlns="http://www.w3.org/2000/svg">
<rect width="46" height="46" rx="12" fill="#56A0D9" fill-opacity="0.1"/>
<path d="M21.97 34.2426C21.9159 34.459 21.7911 34.651 21.6154 34.7883C21.4396 34.9255 21.223 35.0001 21 35.0001C20.9158 35.0005 20.8318 34.9905 20.75 34.9701L16.75 33.9701C16.6387 33.9422 16.5329 33.8952 16.4375 33.8314L13.4375 31.8314C13.2169 31.6842 13.0638 31.4554 13.0118 31.1953C12.9599 30.9352 13.0134 30.6651 13.1606 30.4445C13.3078 30.2239 13.5366 30.0708 13.7967 30.0188C14.0568 29.9669 14.3269 30.0204 14.5475 30.1676L17.4025 32.0714L21.235 33.0301C21.3631 33.0612 21.4837 33.1172 21.59 33.195C21.6964 33.2729 21.7863 33.3709 21.8546 33.4836C21.9229 33.5963 21.9682 33.7213 21.988 33.8516C22.0078 33.9819 22.0017 34.1148 21.97 34.2426ZM38.5563 22.1851C38.4742 22.4344 38.3436 22.6649 38.172 22.8633C38.0003 23.0618 37.7911 23.2243 37.5563 23.3414L34.5963 24.8214L27.7113 31.7076C27.5891 31.8297 27.4373 31.9181 27.2709 31.9641C27.1044 32.0101 26.9288 32.0122 26.7613 31.9701L18.7613 29.9701C18.6396 29.9396 18.5247 29.8866 18.4225 29.8139L11.4825 24.8589L8.44752 23.3414C7.97319 23.1043 7.61244 22.6885 7.44461 22.1854C7.27677 21.6824 7.31559 21.1333 7.55252 20.6589L10.6588 14.4476C10.8959 13.9733 11.3117 13.6126 11.8147 13.4447C12.3177 13.2769 12.8668 13.3157 13.3413 13.5526L16.0988 14.9276L22.7238 13.0351C22.9035 12.9837 23.094 12.9837 23.2738 13.0351L29.8988 14.9276L32.6563 13.5526C33.1307 13.3157 33.6798 13.2769 34.1828 13.4447C34.6859 13.6126 35.1017 13.9733 35.3388 14.4476L38.445 20.6589C38.5635 20.8933 38.6343 21.1489 38.6534 21.4109C38.6725 21.6728 38.6395 21.936 38.5563 22.1851ZM32.7838 23.8026L29.3825 17.0001H25.405L20 22.2501C21.5825 23.2614 24.0638 23.5401 26.29 21.2964C26.4639 21.1211 26.6964 21.0164 26.9429 21.0023C27.1894 20.9882 27.4323 21.0658 27.625 21.2201L31.9263 24.6664L32.7838 23.8026ZM9.34127 21.5526L11.5525 22.6589L14.6588 16.4476L12.4475 15.3414L9.34127 21.5526ZM30.5 26.0826L27.0363 23.3089C24.5938 25.3089 21.4925 25.5726 18.9225 23.9339C18.6697 23.7731 18.4563 23.5575 18.298 23.3031C18.1396 23.0488 18.0405 22.7621 18.0079 22.4642C17.9752 22.1664 18.0099 21.8651 18.1094 21.5824C18.2088 21.2998 18.3705 21.0431 18.5825 20.8314C18.5855 20.8277 18.5889 20.8244 18.5925 20.8214L24.2 15.3826L23 15.0401L16.6975 16.8414L13.2763 23.6826L19.4263 28.0764L26.6938 29.8926L30.5 26.0826ZM36.655 21.5526L33.5525 15.3414L31.3413 16.4476L34.4475 22.6589L36.655 21.5526Z" fill="#4BAEEB"/>
</svg>
