<svg width="46" height="46" viewBox="0 0 46 46" fill="none" xmlns="http://www.w3.org/2000/svg">
<rect width="46" height="46" rx="12" fill="#56A0D9" fill-opacity="0.1"/>
<path d="M37.48 16.5237C37.2544 16.327 36.9754 16.2018 36.6785 16.164C36.3817 16.1261 36.0802 16.1774 35.8125 16.3112L29.5362 19.4362L24.2962 10.7325C24.1615 10.5091 23.9714 10.3244 23.7443 10.1961C23.5172 10.0679 23.2608 10.0005 23 10.0005C22.7392 10.0005 22.4828 10.0679 22.2557 10.1961C22.0286 10.3244 21.8384 10.5091 21.7037 10.7325L16.4637 19.44L10.19 16.315C9.92292 16.1823 9.62262 16.1315 9.32678 16.1689C9.03094 16.2063 8.75274 16.3303 8.52709 16.5252C8.30143 16.7202 8.13839 16.9774 8.0584 17.2647C7.97842 17.552 7.98506 17.8565 8.07749 18.14L12.7025 32.31C12.749 32.4523 12.8269 32.5824 12.9304 32.6906C13.0339 32.7989 13.1604 32.8825 13.3005 32.9353C13.4407 32.988 13.5909 33.0087 13.7401 32.9957C13.8893 32.9826 14.0336 32.9363 14.1625 32.86C14.1937 32.8412 17.39 31 23 31C28.61 31 31.8062 32.8412 31.835 32.8587C31.9639 32.9357 32.1085 32.9827 32.2581 32.9962C32.4076 33.0097 32.5583 32.9893 32.6989 32.9366C32.8396 32.8839 32.9665 32.8002 33.0703 32.6917C33.1742 32.5832 33.2522 32.4528 33.2987 32.31L37.9237 18.1437C38.0188 17.8601 38.0274 17.5547 37.9484 17.2662C37.8694 16.9777 37.7063 16.7193 37.48 16.5237ZM31.75 30.6037C30.25 29.9675 27.26 29 23 29C18.74 29 15.75 29.9675 14.25 30.6037L10.3387 18.625L15.9725 21.4337C16.3135 21.6019 16.7051 21.6363 17.0702 21.5301C17.4353 21.4239 17.7474 21.1848 17.945 20.86L23 12.4575L28.055 20.8575C28.2528 21.1818 28.5646 21.4204 28.9294 21.5266C29.2941 21.6327 29.6853 21.5987 30.0262 21.4312L35.6612 18.625L31.75 30.6037ZM28.9837 26.6037C28.9429 26.835 28.822 27.0446 28.6421 27.1957C28.4622 27.3468 28.2349 27.4297 28 27.43C27.9413 27.4299 27.8828 27.4249 27.825 27.415C24.6309 26.8666 21.3666 26.8666 18.1725 27.415C17.9113 27.461 17.6424 27.4015 17.4251 27.2493C17.2078 27.0972 17.0598 26.865 17.0137 26.6037C16.9677 26.3425 17.0272 26.0736 17.1794 25.8563C17.3315 25.639 17.5638 25.491 17.825 25.445C21.2491 24.8566 24.7484 24.8566 28.1725 25.445C28.4332 25.4907 28.6652 25.638 28.8175 25.8545C28.9698 26.071 29.03 26.3391 28.985 26.6L28.9837 26.6037Z" fill="#4BAEEB"/>
</svg>
