<svg width="46" height="46" viewBox="0 0 46 46" fill="none" xmlns="http://www.w3.org/2000/svg">
<rect width="46" height="46" rx="12" fill="#56A0D9" fill-opacity="0.1"/>
<path d="M35.415 16.1714L29.8288 10.5864C29.643 10.4007 29.4225 10.2533 29.1799 10.1528C28.9372 10.0522 28.6771 10.0005 28.4144 10.0005C28.1517 10.0005 27.8916 10.0522 27.6489 10.1528C27.4062 10.2533 27.1857 10.4007 27 10.5864L11.5863 26.0002C11.3997 26.1852 11.2519 26.4055 11.1512 26.6482C11.0506 26.8909 10.9992 27.1512 11 27.4139V33.0002C11 33.5306 11.2107 34.0393 11.5858 34.4144C11.9609 34.7895 12.4696 35.0002 13 35.0002H34C34.2652 35.0002 34.5196 34.8948 34.7071 34.7073C34.8947 34.5198 35 34.2654 35 34.0002C35 33.735 34.8947 33.4806 34.7071 33.2931C34.5196 33.1055 34.2652 33.0002 34 33.0002H21.415L35.415 19.0002C35.6008 18.8145 35.7481 18.594 35.8487 18.3513C35.9492 18.1086 36.001 17.8485 36.001 17.5858C36.001 17.3231 35.9492 17.063 35.8487 16.8203C35.7481 16.5777 35.6008 16.3572 35.415 16.1714ZM18.5863 33.0002H13V27.4139L24 16.4139L29.5863 22.0002L18.5863 33.0002ZM31 20.5864L25.415 15.0002L28.415 12.0002L34 17.5864L31 20.5864Z" fill="#4BAEEB"/>
</svg>
