<svg width="19" height="18" viewBox="0 0 19 18" fill="none" xmlns="http://www.w3.org/2000/svg">
<path d="M17.9853 17.4853C17.7977 17.6728 17.5434 17.7782 17.2782 17.7782C17.013 17.7782 16.7586 17.6728 16.5711 17.4853L9.5 10.4142L2.42893 17.4853C2.2414 17.6728 1.98704 17.7782 1.72183 17.7782C1.45661 17.7782 1.20226 17.6728 1.01472 17.4853C0.827182 17.2977 0.721825 17.0434 0.721825 16.7782C0.721825 16.5129 0.827182 16.2586 1.01472 16.071L8.08579 8.99998L1.01472 1.92891C0.827182 1.74138 0.721825 1.48702 0.721825 1.22181C0.721825 0.956591 0.827182 0.702237 1.01472 0.5147C1.20226 0.327164 1.45661 0.221807 1.72183 0.221807C1.98704 0.221807 2.2414 0.327164 2.42893 0.5147L9.5 7.58577L16.5711 0.5147C16.7586 0.327164 17.013 0.221807 17.2782 0.221807C17.5434 0.221807 17.7977 0.327164 17.9853 0.5147C18.1728 0.702237 18.2782 0.956591 18.2782 1.22181C18.2782 1.48702 18.1728 1.74138 17.9853 1.92891L10.9142 8.99998L17.9853 16.071C18.1728 16.2586 18.2782 16.5129 18.2782 16.7782C18.2782 17.0434 18.1728 17.2977 17.9853 17.4853Z" fill="#414651"/>
</svg>
