<svg width="32" height="32" viewBox="0 0 32 32" fill="none" xmlns="http://www.w3.org/2000/svg">
<path fill-rule="evenodd" clip-rule="evenodd" d="M8 0C3.58172 0 0 3.58172 0 8V24C0 28.4183 3.58172 32 8 32H24C28.4183 32 32 28.4183 32 24V8C32 3.58172 28.4183 0 24 0H8ZM10.8044 12.9997L21.1967 18.9997L18.1967 24.1958C16.5398 27.0656 12.8703 28.0488 10.0005 26.392C7.13075 24.7351 6.1475 21.0656 7.80436 18.1958L10.8044 12.9997ZM12.0723 6.80352L9.0723 11.9997L6.0723 17.1958C3.86317 21.0222 5.17417 25.9149 9.00051 28.124C12.8268 30.3332 17.7196 29.0222 19.9287 25.1958L22.9287 19.9997L25.9287 14.8035C28.1378 10.9772 26.8268 6.08445 23.0005 3.87531C19.1742 1.66617 14.2814 2.97718 12.0723 6.80352Z" fill="white"/>
</svg>
