<svg width="26" height="26" viewBox="0 0 26 26" fill="none" xmlns="http://www.w3.org/2000/svg">
<path d="M7.84783 2.0066C8.15601 1.10415 9.43234 1.10415 9.74052 2.0066L11.0688 5.89635C11.1689 6.18935 11.399 6.41948 11.692 6.51953L15.5818 7.84783C16.4842 8.15601 16.4842 9.43234 15.5818 9.74052L11.692 11.0688C11.399 11.1689 11.1689 11.399 11.0688 11.692L9.74052 15.5818C9.43234 16.4842 8.15601 16.4842 7.84783 15.5818L6.51953 11.692C6.41948 11.399 6.18935 11.1689 5.89635 11.0688L2.0066 9.74052C1.10415 9.43234 1.10415 8.15601 2.0066 7.84783L5.89635 6.51953C6.18935 6.41948 6.41948 6.18935 6.51953 5.89635L7.84783 2.0066Z" fill="#56A0D9"/>
<path d="M18.929 12.1884C19.2236 11.2575 20.5411 11.2575 20.8357 12.1884L21.3803 13.909C21.4785 14.2193 21.7216 14.4624 22.0319 14.5607L23.7525 15.1052C24.6835 15.3999 24.6835 16.7173 23.7525 17.012L22.0319 17.5566C21.7216 17.6548 21.4785 17.8979 21.3803 18.2082L20.8357 19.9288C20.5411 20.8598 19.2236 20.8598 18.929 19.9288L18.3844 18.2082C18.2862 17.8979 18.0431 17.6548 17.7328 17.5566L16.0122 17.012C15.0812 16.7173 15.0812 15.3999 16.0122 15.1052L17.7328 14.5607C18.0431 14.4624 18.2862 14.2193 18.3844 13.909L18.929 12.1884Z" fill="#56A0D9"/>
<path d="M11.3656 19.7538C11.4827 19.2336 12.2239 19.2336 12.3411 19.7538L12.5571 20.7126C12.5995 20.901 12.7466 21.0481 12.935 21.0905L13.8938 21.3065C14.414 21.4237 14.414 22.1649 13.8938 22.282L12.935 22.498C12.7466 22.5405 12.5995 22.6876 12.5571 22.8759L12.3411 23.8348C12.2239 24.3549 11.4827 24.3549 11.3656 23.8348L11.1496 22.8759C11.1071 22.6876 10.96 22.5405 10.7717 22.498L9.81284 22.282C9.29268 22.1649 9.29268 21.4237 9.81284 21.3065L10.7717 21.0905C10.96 21.0481 11.1071 20.901 11.1496 20.7126L11.3656 19.7538Z" fill="#56A0D9"/>
</svg>
