<svg width="35" height="34" viewBox="0 0 35 34" fill="none" xmlns="http://www.w3.org/2000/svg">
<path d="M11.0537 1.77124C11.3618 0.868796 12.6382 0.868796 12.9463 1.77124L15.0233 7.85348C15.1234 8.14647 15.3535 8.3766 15.6465 8.47666L21.7288 10.5537C22.6312 10.8618 22.6312 12.1382 21.7288 12.4463L15.6465 14.5233C15.3535 14.6234 15.1234 14.8535 15.0233 15.1465L12.9463 21.2288C12.6382 22.1312 11.3618 22.1312 11.0537 21.2288L8.97666 15.1465C8.8766 14.8535 8.64647 14.6234 8.35348 14.5233L2.27124 12.4463C1.3688 12.1382 1.3688 10.8618 2.27124 10.5537L8.35348 8.47666C8.64647 8.3766 8.8766 8.14647 8.97666 7.85348L11.0537 1.77124Z" fill="#C8D5E0" fill-opacity="0.52"/>
<path d="M25.5466 15.0122C25.8413 14.0812 27.1587 14.0812 27.4534 15.0122L28.5071 18.3413C28.6053 18.6516 28.8484 18.8947 29.1587 18.9929L32.4878 20.0466C33.4188 20.3413 33.4188 21.6587 32.4878 21.9534L29.1587 23.0071C28.8484 23.1053 28.6053 23.3484 28.5071 23.6587L27.4534 26.9878C27.1587 27.9188 25.8413 27.9188 25.5466 26.9878L24.4929 23.6587C24.3947 23.3484 24.1516 23.1053 23.8413 23.0071L20.5122 21.9534C19.5812 21.6587 19.5812 20.3413 20.5122 20.0466L23.8413 18.9929C24.1516 18.8947 24.3947 18.6516 24.4929 18.3413L25.5466 15.0122Z" fill="#C8D5E0" fill-opacity="0.52"/>
<path d="M15.5122 25.1654C15.6294 24.6452 16.3706 24.6452 16.4878 25.1654L16.9417 27.1804C16.9841 27.3688 17.1312 27.5159 17.3196 27.5583L19.3346 28.0122C19.8548 28.1294 19.8548 28.8706 19.3346 28.9878L17.3196 29.4417C17.1312 29.4841 16.9841 29.6312 16.9417 29.8196L16.4878 31.8346C16.3706 32.3548 15.6294 32.3548 15.5122 31.8346L15.0583 29.8196C15.0159 29.6312 14.8688 29.4841 14.6804 29.4417L12.6654 28.9878C12.1452 28.8706 12.1452 28.1294 12.6654 28.0122L14.6804 27.5583C14.8688 27.5159 15.0159 27.3688 15.0583 27.1804L15.5122 25.1654Z" fill="#C8D5E0" fill-opacity="0.52"/>
</svg>
