<svg width="27" height="26" viewBox="0 0 27 26" fill="none" xmlns="http://www.w3.org/2000/svg">
<path d="M8.34783 2.0066C8.65601 1.10415 9.93234 1.10415 10.2405 2.0066L11.5688 5.89635C11.6689 6.18935 11.899 6.41948 12.192 6.51953L16.0818 7.84783C16.9842 8.15601 16.9842 9.43234 16.0818 9.74052L12.192 11.0688C11.899 11.1689 11.6689 11.399 11.5688 11.692L10.2405 15.5818C9.93234 16.4842 8.65601 16.4842 8.34783 15.5818L7.01953 11.692C6.91948 11.399 6.68935 11.1689 6.39635 11.0688L2.5066 9.74052C1.60415 9.43234 1.60415 8.15601 2.5066 7.84783L6.39635 6.51953C6.68935 6.41948 6.91948 6.18935 7.01953 5.89635L8.34783 2.0066Z" fill="white"/>
<path d="M19.429 12.1884C19.7236 11.2575 21.0411 11.2575 21.3357 12.1884L21.8803 13.909C21.9785 14.2193 22.2216 14.4624 22.5319 14.5607L24.2525 15.1052C25.1835 15.3999 25.1835 16.7173 24.2525 17.012L22.5319 17.5566C22.2216 17.6548 21.9785 17.8979 21.8803 18.2082L21.3357 19.9288C21.0411 20.8598 19.7236 20.8598 19.429 19.9288L18.8844 18.2082C18.7862 17.8979 18.5431 17.6548 18.2328 17.5566L16.5122 17.012C15.5812 16.7173 15.5812 15.3999 16.5122 15.1052L18.2328 14.5607C18.5431 14.4624 18.7862 14.2193 18.8844 13.909L19.429 12.1884Z" fill="white"/>
<path d="M11.8651 19.7538C11.9822 19.2336 12.7235 19.2336 12.8406 19.7538L13.0566 20.7126C13.0991 20.901 13.2462 21.0481 13.4345 21.0905L14.3934 21.3065C14.9135 21.4237 14.9135 22.1649 14.3934 22.282L13.4345 22.498C13.2462 22.5405 13.0991 22.6876 13.0566 22.8759L12.8406 23.8348C12.7235 24.3549 11.9822 24.3549 11.8651 23.8348L11.6491 22.8759C11.6067 22.6876 11.4596 22.5405 11.2712 22.498L10.3124 22.282C9.79219 22.1649 9.79219 21.4237 10.3124 21.3065L11.2712 21.0905C11.4596 21.0481 11.6067 20.901 11.6491 20.7126L11.8651 19.7538Z" fill="white"/>
</svg>
